<svg width="48" height="48" viewBox="0 0 48 48" fill="none" xmlns="http://www.w3.org/2000/svg">
<rect width="48" height="48" fill="white"/>
<path d="M22.9377 23.0631C23.2526 23.3805 23.6276 23.4976 23.9975 23.4976C24.3624 23.5025 24.7424 23.3805 25.0573 23.0631L29.9916 18.0837C31.4963 16.5654 31.8113 13.6851 29.6916 11.9179C27.7719 10.3167 25.2373 11.049 23.9975 12.2987C22.7577 11.049 20.2231 10.3167 18.3084 11.9179C16.1887 13.6851 16.5037 16.5654 18.0084 18.0837L22.9377 23.0631ZM19.8232 13.7144C20.528 13.1286 21.6279 13.2751 22.2878 13.9439L23.9975 15.6672L25.7022 13.939C26.3621 13.2702 27.467 13.1237 28.1668 13.7096C29.1117 14.4955 28.9517 15.7795 28.3018 16.4385L23.9975 20.7882L19.6932 16.4385C19.0383 15.7843 18.8833 14.5004 19.8232 13.7144ZM36.6405 15.6965C34.5459 15.5598 32.7961 17.1854 32.7961 19.2016C32.7961 19.2016 32.7911 21.1055 32.7861 22.9118C31.2964 21.9452 29.1617 22.1551 27.9469 23.6929L24.3574 28.2476C24.2225 28.4185 24.1075 28.6089 23.9975 28.7944C23.8825 28.6089 23.7725 28.4185 23.6376 28.2476L20.0481 23.6929C18.8183 22.1356 16.6786 21.9599 15.2089 22.9118C15.2039 21.1006 15.1989 19.2016 15.1989 19.2016C15.1989 17.1854 13.4491 15.5598 11.3545 15.6965C9.43977 15.8185 8 17.4539 8 19.3237V28.6724C8 29.9075 8.43493 31.123 9.22481 32.0897L12.1593 35.7022C12.3093 35.8877 12.5443 36 12.7843 36H13.5991C14.0391 36 14.399 35.6485 14.399 35.2189C14.399 34.8528 14.269 34.4964 14.0391 34.2132L11.0995 30.6251C10.6446 30.0735 10.3996 29.3851 10.3996 28.6724V19.2456C10.3996 18.6793 10.7896 18.1569 11.3595 18.0544C12.1244 17.9079 12.7993 18.4791 12.7993 19.2016C12.7993 19.2016 12.8092 24.1323 12.8142 25.6749C12.8142 26.0459 12.9542 26.3974 13.2042 26.6806L17.0286 31.2012C17.9135 32.2459 19.6382 31.0401 18.7233 29.8245L16.2487 26.5537C15.8438 26.0411 15.9438 25.3039 16.4687 24.9085C17.0086 24.4984 17.7585 24.6253 18.1534 25.1233L21.7379 29.6731C22.1678 30.2199 22.4028 30.8887 22.4028 31.5771V35.214C22.4028 35.6436 22.7627 35.9951 23.2026 35.9951H24.8024C25.2423 35.9951 25.6022 35.6436 25.6022 35.214V31.5819C25.6022 30.8936 25.8372 30.2248 26.2671 29.678L29.8516 25.1282C30.2465 24.6302 30.9964 24.5082 31.5363 24.9134C32.0612 25.3088 32.1612 26.0411 31.7563 26.5585L29.2817 29.8294C28.3618 31.0449 30.0915 32.2508 30.9764 31.206L34.8008 26.6855C35.0508 26.4023 35.1858 26.0508 35.1908 25.6798C35.1858 24.1323 35.1958 19.2016 35.1958 19.2016C35.1958 18.4791 35.8656 17.9079 36.6355 18.0544C37.2054 18.1618 37.5954 18.6793 37.5954 19.2456V28.6724C37.5954 29.3802 37.3504 30.0686 36.8955 30.6202L33.9609 34.2035C33.726 34.4915 33.601 34.843 33.601 35.2091C33.601 35.6387 33.9609 35.9902 34.4009 35.9902H35.2157C35.4607 35.9902 35.6907 35.8828 35.8407 35.6924L38.7752 32.0799C39.5651 31.1133 40 29.9026 40 28.6626V19.3237C39.995 17.4539 38.5552 15.8185 36.6405 15.6965Z" fill="#E29B11"/>
<path d="M22.9377 23.0631C23.2526 23.3805 23.6276 23.4976 23.9975 23.4976C24.3624 23.5025 24.7424 23.3805 25.0573 23.0631L29.9916 18.0837C31.4963 16.5654 31.8113 13.6851 29.6916 11.9179C27.7719 10.3167 25.2373 11.049 23.9975 12.2987C22.7577 11.049 20.2231 10.3167 18.3084 11.9179C16.1887 13.6851 16.5037 16.5654 18.0084 18.0837L22.9377 23.0631ZM19.8232 13.7144C20.528 13.1286 21.6279 13.2751 22.2878 13.9439L23.9975 15.6672L25.7022 13.939C26.3621 13.2702 27.467 13.1237 28.1668 13.7096C29.1117 14.4955 28.9517 15.7795 28.3018 16.4385L23.9975 20.7882L19.6932 16.4385C19.0383 15.7843 18.8833 14.5004 19.8232 13.7144ZM36.6405 15.6965C34.5459 15.5598 32.7961 17.1854 32.7961 19.2016C32.7961 19.2016 32.7911 21.1055 32.7861 22.9118C31.2964 21.9452 29.1617 22.1551 27.9469 23.6929L24.3574 28.2476C24.2225 28.4185 24.1075 28.6089 23.9975 28.7944C23.8825 28.6089 23.7725 28.4185 23.6376 28.2476L20.0481 23.6929C18.8183 22.1356 16.6786 21.9599 15.2089 22.9118C15.2039 21.1006 15.1989 19.2016 15.1989 19.2016C15.1989 17.1854 13.4491 15.5598 11.3545 15.6965C9.43977 15.8185 8 17.4539 8 19.3237V28.6724C8 29.9075 8.43493 31.123 9.22481 32.0897L12.1593 35.7022C12.3093 35.8877 12.5443 36 12.7843 36H13.5991C14.0391 36 14.399 35.6485 14.399 35.2189C14.399 34.8528 14.269 34.4964 14.0391 34.2132L11.0995 30.6251C10.6446 30.0735 10.3996 29.3851 10.3996 28.6724V19.2456C10.3996 18.6793 10.7896 18.1569 11.3595 18.0544C12.1244 17.9079 12.7993 18.4791 12.7993 19.2016C12.7993 19.2016 12.8092 24.1323 12.8142 25.6749C12.8142 26.0459 12.9542 26.3974 13.2042 26.6806L17.0286 31.2012C17.9135 32.2459 19.6382 31.0401 18.7233 29.8245L16.2487 26.5537C15.8438 26.0411 15.9438 25.3039 16.4687 24.9085C17.0086 24.4984 17.7585 24.6253 18.1534 25.1233L21.7379 29.6731C22.1678 30.2199 22.4028 30.8887 22.4028 31.5771V35.214C22.4028 35.6436 22.7627 35.9951 23.2026 35.9951H24.8024C25.2423 35.9951 25.6022 35.6436 25.6022 35.214V31.5819C25.6022 30.8936 25.8372 30.2248 26.2671 29.678L29.8516 25.1282C30.2465 24.6302 30.9964 24.5082 31.5363 24.9134C32.0612 25.3088 32.1612 26.0411 31.7563 26.5585L29.2817 29.8294C28.3618 31.0449 30.0915 32.2508 30.9764 31.206L34.8008 26.6855C35.0508 26.4023 35.1858 26.0508 35.1908 25.6798C35.1858 24.1323 35.1958 19.2016 35.1958 19.2016C35.1958 18.4791 35.8656 17.9079 36.6355 18.0544C37.2054 18.1618 37.5954 18.6793 37.5954 19.2456V28.6724C37.5954 29.3802 37.3504 30.0686 36.8955 30.6202L33.9609 34.2035C33.726 34.4915 33.601 34.843 33.601 35.2091C33.601 35.6387 33.9609 35.9902 34.4009 35.9902H35.2157C35.4607 35.9902 35.6907 35.8828 35.8407 35.6924L38.7752 32.0799C39.5651 31.1133 40 29.9026 40 28.6626V19.3237C39.995 17.4539 38.5552 15.8185 36.6405 15.6965Z" fill="#E29B11"/>
</svg>
