<svg width="48" height="48" viewBox="0 0 48 48" fill="none" xmlns="http://www.w3.org/2000/svg">
<rect width="48" height="48" fill="white"/>
<path d="M28.4862 23.2455C27.1223 22.1371 25.3348 22.6304 24.4237 23.5241L23.9942 23.9478L23.5647 23.5241C22.6768 22.6478 20.8835 22.1254 19.5022 23.2455C18.1326 24.354 18.0629 26.3504 19.2875 27.5518L23.5009 31.6897C23.7737 31.9567 24.2147 31.9567 24.4875 31.6897L28.7009 27.5518C29.9254 26.3504 29.8558 24.354 28.4862 23.2455ZM36.9942 19.3571C36.9942 18.742 36.8433 18.1384 36.5531 17.5987L33.7036 12.2652C33.454 11.5107 32.746 11 31.9451 11H16.0549C15.254 11 14.546 11.5107 14.2906 12.271L11.4411 17.6045C11.1509 18.1442 11 18.7478 11 19.3629C11.0058 22.8741 11 35.1429 11 35.1429C11 36.1701 11.8299 37 12.8571 37H35.1429C36.1701 37 37 36.1701 37 35.1429C37 35.1429 36.9942 22.8741 36.9942 19.3571ZM25.3929 13.7857H31.3589L33.3438 17.5H25.3929V13.7857ZM16.6411 13.7857H22.6071V17.5H14.6562L16.6411 13.7857ZM13.7857 34.2143C13.7857 32.096 13.7915 24.7254 13.7915 20.2857H34.2085C34.2085 24.7254 34.2143 32.096 34.2143 34.2143H13.7857Z" fill="#38AAFD"/>
</svg>
