<svg width="48" height="48" viewBox="0 0 48 48" fill="none" xmlns="http://www.w3.org/2000/svg">
<rect width="48" height="48" fill="white"/>
<path d="M22.4563 22.7965L25.0004 23.5227C25.1832 23.5734 25.3102 23.7461 25.3102 23.934C25.3102 24.1676 25.1172 24.3605 24.8836 24.3605H23.218C23.0352 24.3605 22.8574 24.3199 22.6949 24.2488C22.4512 24.1371 22.1668 24.1625 21.9789 24.3504L21.0902 25.2391C20.8211 25.5082 20.8516 25.9652 21.1664 26.1734C21.6488 26.4934 22.2023 26.6863 22.7812 26.7574V27.6562C22.7812 28.1031 23.1469 28.4688 23.5938 28.4688H24.4062C24.8531 28.4688 25.2188 28.1031 25.2188 27.6562V26.7625C26.7574 26.5797 27.9305 25.1883 27.7223 23.5633C27.575 22.3953 26.6711 21.466 25.5437 21.141L22.9996 20.4148C22.8168 20.3641 22.6898 20.1914 22.6898 20.0035C22.6898 19.7699 22.8828 19.577 23.1164 19.577H24.782C24.9648 19.577 25.1426 19.6176 25.3051 19.6887C25.5488 19.8004 25.8332 19.775 26.0211 19.5871L26.9098 18.6984C27.1789 18.4293 27.1484 17.9723 26.8336 17.7641C26.3512 17.4441 25.7977 17.2512 25.2188 17.1801V16.2812C25.2188 15.8344 24.8531 15.4688 24.4062 15.4688H23.5938C23.1469 15.4688 22.7812 15.8344 22.7812 16.2812V17.175C21.2426 17.3578 20.0695 18.7492 20.2777 20.3742C20.425 21.5422 21.3238 22.4715 22.4563 22.7965ZM35.375 27.25H33.6129C34.4762 25.6809 34.9688 23.8832 34.9688 21.9688C34.9688 15.9105 30.0582 11 24 11C17.9418 11 13.0312 15.9105 13.0312 21.9688C13.0312 23.8832 13.5238 25.6809 14.3871 27.25H12.625C11.7262 27.25 11 28.1234 11 29.2V35.05C11 36.1266 11.7262 37 12.625 37H35.375C36.2738 37 37 36.1266 37 35.05V29.2C37 28.1234 36.2738 27.25 35.375 27.25ZM24 13.4375C28.7023 13.4375 32.5312 17.2664 32.5312 21.9688C32.5312 26.6711 28.7023 30.5 24 30.5C19.2977 30.5 15.4688 26.6711 15.4688 21.9688C15.4688 17.2664 19.2977 13.4375 24 13.4375ZM34.5625 34.5625H13.4375V29.6875H16.2102C16.8297 30.3121 17.5254 30.8504 18.277 31.3125H16.2812C16.0578 31.3125 15.875 31.4953 15.875 31.7188V32.5312C15.875 32.7547 16.0578 32.9375 16.2812 32.9375H31.7188C31.9422 32.9375 32.125 32.7547 32.125 32.5312V31.7188C32.125 31.4953 31.9422 31.3125 31.7188 31.3125H29.723C30.4746 30.8504 31.1703 30.3121 31.7898 29.6875H34.5625V34.5625Z" fill="#44BE8D"/>
</svg>
